<?xml version="1.0" encoding="UTF-8"?>
<svg id="Layer_2" data-name="Layer 2" xmlns="http://www.w3.org/2000/svg" viewBox="0 0 1006 414.56">
  <defs>
    <style>
      .cls-1 {
        fill: #fff;
      }
    </style>
  </defs>
  <g id="Layer_1-2" data-name="Layer 1">
    <g>
      <g>
        <g>
          <path class="cls-1" d="M250.69,144.38c-3.33,0-6.41-.51-9.15-1.52-2.76-1.02-5.18-2.5-7.18-4.42-2.01-1.92-3.57-4.27-4.65-6.99-1.07-2.69-1.61-5.75-1.61-9.09l-.11-4.29h12.3v5.01c0,3.21.91,5.6,2.8,7.31,1.88,1.72,4.47,2.59,7.67,2.59s5.96-.87,7.88-2.59c1.91-1.71,2.83-4.1,2.83-7.31v-26.91h-7.9v-11.39h20.1v37.58c0,3.34-.54,6.4-1.61,9.09-1.07,2.71-2.64,5.06-4.65,6.99-2,1.92-4.42,3.41-7.18,4.42-2.74,1.01-5.82,1.52-9.15,1.52h-.4Z"/>
          <path class="cls-1" d="M300.97,144.38c-3.54,0-6.78-.51-9.62-1.51-2.87-1.02-5.36-2.5-7.39-4.42-2.04-1.92-3.63-4.27-4.73-6.98-1.09-2.7-1.65-5.76-1.65-9.11v-37.58h12.2v38.3c0,3.2.95,5.59,2.9,7.3,1.97,1.73,4.78,2.6,8.37,2.6s6.64-.87,8.61-2.6c1.95-1.71,2.9-4.1,2.9-7.3v-38.3h12.2v37.58c0,3.35-.55,6.41-1.65,9.1-1.1,2.71-2.69,5.06-4.73,6.98-2.03,1.92-4.52,3.41-7.39,4.42-2.85,1-6.09,1.51-9.62,1.51h-.4Z"/>
          <polygon class="cls-1" points="360.7 143.34 340.86 107.82 340.86 143.34 328.66 143.34 328.66 84.79 341.23 84.79 361.07 120.3 361.07 84.79 373.27 84.79 373.27 143.34 360.7 143.34"/>
          <polygon class="cls-1" points="392.14 143.34 392.14 96.18 375.3 96.18 375.3 84.79 421.27 84.79 421.27 96.18 404.34 96.18 404.34 143.34 392.14 143.34"/>
          <path class="cls-1" d="M449.07,144.46c-4.52,0-8.64-.73-12.24-2.17-3.62-1.45-6.75-3.54-9.32-6.22-2.56-2.67-4.55-5.92-5.91-9.64-1.35-3.7-2.04-7.86-2.04-12.37s.69-8.68,2.04-12.37c1.36-3.72,3.35-6.96,5.92-9.6,2.57-2.65,5.7-4.73,9.32-6.17,3.6-1.44,7.72-2.17,12.24-2.17s8.65.73,12.28,2.17c3.64,1.45,6.79,3.52,9.36,6.17,2.56,2.65,4.56,5.88,5.92,9.6,1.35,3.7,2.04,7.87,2.04,12.37s-.69,8.67-2.04,12.37c-1.36,3.72-3.35,6.96-5.91,9.64-2.57,2.68-5.72,4.77-9.36,6.22-3.63,1.44-7.76,2.17-12.28,2.17ZM449.07,95.13c-2.75,0-5.23.45-7.37,1.33-2.13.88-3.94,2.13-5.38,3.72-1.45,1.6-2.58,3.59-3.37,5.91-.79,2.35-1.19,5.03-1.19,7.96s.4,5.63,1.19,8.01c.78,2.35,1.92,4.35,3.37,5.95,1.45,1.6,3.25,2.85,5.38,3.72,2.14.88,4.62,1.33,7.37,1.33s5.23-.45,7.37-1.33c2.13-.88,3.95-2.13,5.43-3.73,1.47-1.6,2.62-3.6,3.4-5.94.79-2.38,1.19-5.07,1.19-8.01s-.4-5.61-1.19-7.96c-.78-2.32-1.93-4.31-3.4-5.91-1.47-1.59-3.3-2.85-5.43-3.73-2.15-.88-4.63-1.33-7.37-1.33Z"/>
          <path class="cls-1" d="M503.79,144.22c-2.59,0-5.02-.24-7.23-.71-2.2-.47-4.26-1.11-6.12-1.92-1.85-.8-3.55-1.73-5.05-2.76-1.49-1.02-2.81-2.07-3.92-3.13l-.76-.72,7.77-8.46.78.67c2.11,1.8,4.34,3.21,6.66,4.18,2.27.96,4.9,1.45,7.81,1.45,1.81,0,3.33-.2,4.5-.59,1.15-.38,2.07-.87,2.74-1.45.64-.55,1.06-1.16,1.3-1.87.26-.78.39-1.54.39-2.28,0-1.43-.36-2.55-1.09-3.44-.79-.95-1.86-1.77-3.2-2.42-1.4-.69-3.04-1.29-4.85-1.78l-5.76-1.57c-1.99-.55-3.97-1.19-5.87-1.93-1.97-.76-3.75-1.75-5.3-2.93-1.59-1.21-2.88-2.75-3.84-4.58-.96-1.84-1.45-4.13-1.45-6.82,0-2.5.46-4.84,1.38-6.95.92-2.13,2.28-3.98,4.03-5.5,1.74-1.51,3.92-2.71,6.49-3.55,2.54-.84,5.48-1.26,8.75-1.26,4.47,0,8.58.75,12.21,2.21,3.61,1.46,6.79,3.35,9.44,5.62l.78.67-7.19,8.96-.83-.65c-2.48-1.96-4.91-3.37-7.23-4.18-2.32-.82-4.71-1.23-7.1-1.23-3.13,0-5.37.52-6.68,1.55-1.24.98-1.85,2.13-1.85,3.52,0,1.12.34,2.01,1.03,2.73.79.81,1.86,1.5,3.19,2.05,1.42.59,3.06,1.12,4.88,1.56,1.9.46,3.85.98,5.81,1.54,1.98.57,3.96,1.26,5.88,2.05,1.98.82,3.77,1.91,5.32,3.24,1.58,1.35,2.87,3.06,3.82,5.07.95,2.02,1.43,4.47,1.43,7.3,0,2.54-.43,4.95-1.28,7.19-.86,2.26-2.18,4.24-3.93,5.88-1.74,1.63-3.95,2.92-6.58,3.85-2.6.92-5.71,1.39-9.26,1.39Z"/>
        </g>
        <g>
          <path class="cls-1" d="M553.98,143.34v-58.55h26.61c3.18,0,6.13.53,8.77,1.57,2.65,1.05,4.96,2.54,6.85,4.43,1.89,1.9,3.38,4.2,4.43,6.85,1.04,2.64,1.57,5.59,1.57,8.77s-.53,6.31-1.56,9.01c-1.05,2.71-2.53,5.05-4.43,6.97-1.9,1.92-4.2,3.43-6.86,4.48-2.64,1.04-5.59,1.56-8.77,1.56h-14.42v14.91h-12.2ZM579.71,117.03c3.18,0,5.63-.91,7.51-2.79,1.88-1.88,2.79-4.34,2.79-7.51s-.91-5.81-2.8-7.72c-1.88-1.9-4.34-2.83-7.51-2.83h-13.53v20.85h13.53Z"/>
          <path class="cls-1" d="M638.64,144.46c-4.52,0-8.64-.73-12.24-2.17-3.62-1.45-6.75-3.54-9.32-6.22-2.56-2.67-4.55-5.92-5.91-9.64-1.35-3.7-2.04-7.86-2.04-12.37s.69-8.68,2.04-12.38c1.36-3.72,3.35-6.95,5.92-9.6,2.57-2.65,5.7-4.73,9.32-6.17,3.6-1.44,7.72-2.17,12.24-2.17s8.65.73,12.28,2.17c3.64,1.45,6.79,3.52,9.36,6.17,2.56,2.65,4.55,5.88,5.92,9.6,1.35,3.71,2.04,7.87,2.04,12.38s-.69,8.67-2.04,12.37c-1.36,3.72-3.35,6.97-5.91,9.64-2.57,2.68-5.72,4.77-9.36,6.22-3.63,1.44-7.76,2.17-12.28,2.17ZM638.64,95.13c-2.75,0-5.23.45-7.37,1.33-2.13.88-3.94,2.13-5.38,3.72-1.45,1.6-2.59,3.59-3.37,5.91-.79,2.35-1.19,5.03-1.19,7.96s.4,5.63,1.19,8.01c.78,2.35,1.91,4.35,3.37,5.95,1.45,1.6,3.25,2.85,5.38,3.72,2.14.88,4.62,1.33,7.37,1.33s5.23-.45,7.37-1.33c2.13-.88,3.95-2.13,5.43-3.73s2.62-3.6,3.4-5.94c.79-2.38,1.19-5.07,1.19-8.01s-.4-5.61-1.19-7.96c-.78-2.32-1.93-4.31-3.4-5.91-1.47-1.59-3.3-2.85-5.43-3.73-2.15-.88-4.63-1.33-7.37-1.33Z"/>
          <path class="cls-1" d="M710.14,143.34l-10.56-16.12h-12.23v16.12h-12.2v-58.55h27.26c3.13,0,6.01.51,8.57,1.53,2.57,1.02,4.8,2.48,6.62,4.36,1.81,1.87,3.24,4.14,4.26,6.76,1.01,2.61,1.53,5.55,1.53,8.73,0,4.58-1.06,8.61-3.14,11.97-1.88,3.02-4.44,5.32-7.63,6.87l12,18.33h-14.47ZM701.45,115.82c3.01,0,5.34-.86,7.11-2.63,1.77-1.77,2.63-4.15,2.63-7.27s-.86-5.34-2.63-7.11c-1.77-1.77-4.09-2.63-7.11-2.63h-14.09v19.64h14.09Z"/>
        </g>
      </g>
      <g>
        <path class="cls-1" d="M372.67,278.08l-8.85-28.21h-33.97l-8.85,28.21h-22.24l37.33-108.87h21.49l37.33,108.87h-22.24ZM357.52,230.21l-10.75-34.14-10.75,34.14h21.51Z"/>
        <polygon class="cls-1" points="482.65 278.08 482.65 217.36 460.11 276.48 460.52 278.08 438.74 278.08 439.13 276.48 416.6 217.36 416.6 278.08 395.42 278.08 395.42 169.21 419.32 169.21 449.7 248.58 479.93 169.21 503.83 169.21 503.83 278.08 482.65 278.08"/>
        <path class="cls-1" d="M580.52,278.08l-8.85-28.21h-33.97l-8.84,28.21h-22.24l37.33-108.87h21.49l37.33,108.87h-22.25ZM565.37,230.21l-10.75-34.14-10.75,34.14h21.51Z"/>
        <polygon class="cls-1" points="603.27 278.08 603.27 169.21 624.46 169.21 624.46 258.42 676 258.42 676 278.08 603.27 278.08"/>
        <rect class="cls-1" x="680.74" y="169.21" width="21.19" height="108.87"/>
        <path class="cls-1" d="M762.32,280.07c-8.43,0-16.11-1.36-22.81-4.04-6.71-2.68-12.54-6.54-17.3-11.45-4.75-4.91-8.45-10.91-10.99-17.83-2.52-6.89-3.8-14.66-3.8-23.09s1.28-16.19,3.8-23.08c2.54-6.92,6.23-12.92,10.99-17.84,4.76-4.91,10.58-8.77,17.3-11.45,6.7-2.68,14.38-4.04,22.81-4.04,9.67,0,18.26,1.75,25.54,5.21,7.28,3.46,13.49,8.35,18.45,14.55l.71.89-17.3,11.87-.62-.75c-3.14-3.82-6.94-6.84-11.31-8.94-4.36-2.11-9.56-3.17-15.47-3.17-5.33,0-10.14.87-14.31,2.59-4.16,1.71-7.7,4.16-10.52,7.28-2.83,3.13-5.04,7-6.57,11.52-1.53,4.55-2.31,9.72-2.31,15.37s.78,10.83,2.31,15.37c1.53,4.52,3.74,8.4,6.57,11.52,2.83,3.12,6.37,5.57,10.52,7.28,4.17,1.72,8.98,2.59,14.31,2.59,5.91,0,11.12-1.07,15.47-3.17,4.36-2.11,8.16-5.11,11.31-8.94l.62-.75,17.3,11.87-.71.89c-4.96,6.2-11.17,11.1-18.45,14.56-7.28,3.46-15.87,5.21-25.54,5.21Z"/>
        <path class="cls-1" d="M878.65,278.08l-8.84-28.21h-33.97l-8.84,28.21h-22.24l37.33-108.87h21.49l37.33,108.87h-22.25ZM863.5,230.21l-10.75-34.14-10.75,34.14h21.51ZM862.05,165.24c-2.3,0-4.37-.48-6.14-1.42-1.64-.87-3.26-1.84-4.82-2.88-1.52-1.01-3.01-1.95-4.45-2.79-1.3-.76-2.79-1.15-4.42-1.15-2.2,0-5.18.64-5.65,6.19l-.08.97h-7.18l-.04-1.02c-.11-2.6.08-5.17.55-7.64.47-2.48,1.28-4.74,2.41-6.73,1.14-2.02,2.67-3.68,4.52-4.93,1.9-1.28,4.2-1.94,6.85-1.94,2.29,0,4.36.48,6.14,1.42,1.65.88,3.24,1.82,4.73,2.8,1.43.94,2.92,1.85,4.44,2.71,1.36.77,2.87,1.16,4.51,1.16s2.81-.43,3.78-1.32c.96-.87,1.53-2.46,1.72-4.72l.08-.98h7.14l.08.98c.21,2.63.05,5.22-.48,7.7-.53,2.49-1.36,4.75-2.48,6.71-1.14,2.01-2.66,3.67-4.52,4.93-1.9,1.29-4.16,1.94-6.7,1.94Z"/>
        <path class="cls-1" d="M950.96,280.22c-8.43,0-16.11-1.36-22.81-4.04-6.72-2.69-12.54-6.57-17.3-11.54-4.75-4.96-8.45-10.99-10.98-17.91-2.52-6.89-3.8-14.66-3.8-23.09s1.28-16.19,3.8-23.08c2.54-6.92,6.23-12.92,10.99-17.84,4.76-4.91,10.58-8.77,17.3-11.45,6.7-2.68,14.38-4.04,22.81-4.04s16.13,1.36,22.88,4.04c6.77,2.69,12.62,6.55,17.37,11.46,4.76,4.91,8.45,10.92,10.99,17.84,2.52,6.9,3.8,14.66,3.8,23.08s-1.28,16.19-3.8,23.09c-2.53,6.92-6.22,12.94-10.98,17.91-4.76,4.97-10.6,8.85-17.38,11.54-6.76,2.68-14.46,4.04-22.88,4.04ZM950.96,186.89c-5.33,0-10.14.87-14.31,2.59-4.16,1.71-7.7,4.16-10.52,7.28-2.83,3.13-5.04,7-6.57,11.52-1.53,4.55-2.31,9.72-2.31,15.37s.78,10.85,2.31,15.45c1.52,4.57,3.73,8.47,6.57,11.59,2.82,3.12,6.36,5.57,10.52,7.28,4.17,1.72,8.98,2.59,14.31,2.59s10.14-.87,14.31-2.59c4.16-1.71,7.73-4.16,10.6-7.28,2.88-3.13,5.11-7.03,6.63-11.59,1.53-4.59,2.31-9.79,2.31-15.45s-.78-10.83-2.31-15.37c-1.52-4.51-3.75-8.39-6.64-11.52-2.88-3.12-6.45-5.57-10.6-7.28-4.17-1.72-8.99-2.59-14.31-2.59Z"/>
        <polygon class="cls-1" points="238.01 278.11 238.01 169.48 312.4 169.48 312.4 188.71 258.76 188.71 258.76 211.35 302.93 211.35 302.93 230.58 258.76 230.58 258.76 278.11 238.01 278.11"/>
      </g>
      <path class="cls-1" d="M169.98,1.01S42.69,27.21,42.69,163.87c0,129.16,112.32,168.48,159.12,168.48,0,0-85.88-26.37-111.65-119.36-9-32.47-8.15-66.81.8-99.3C100.85,77.81,122.61,28.55,169.98,1.01Z"/>
      <path class="cls-1" d="M179.34,92.73S238.31-5.55,362.79,32.83c0,0-102.96-86.11-207.79,20.59-85.75,87.28-22.44,224.67,56.72,249.24-59.54-53.53-76.38-132.25-32.38-209.93Z"/>
      <path class="cls-1" d="M627.65,339.14c-1.27-.39-9.36-2.94-23.51-5.56-.02-.02-.04-.02-.06-.02-33.3-6.2-74.69-14.32-160.8.66-153.74,26.74-192.38,91.73-317.8,78.62-53.88-5.63-96.56-32.35-116.06-76.75-16.92-38.53-8.27-87.46,4.21-119.17,11.94,120.35,105.32,132.33,108.22,132.67.06.02.07.02.07.02,76.23,18.44,186.05-13.03,268.01-27.56,144.07-25.53,233.23,14.98,237.72,17.09Z"/>
    </g>
  </g>
</svg>